<?xml version="1.0" standalone="no"?>
<!DOCTYPE svg PUBLIC "-//W3C//DTD SVG 20010904//EN"
 "http://www.w3.org/TR/2001/REC-SVG-20010904/DTD/svg10.dtd">
<svg version="1.0" xmlns="http://www.w3.org/2000/svg"
 width="2390.000000pt" height="1476.000000pt" viewBox="0 0 2390.000000 1476.000000"
 preserveAspectRatio="xMidYMid meet">

<g transform="translate(0.000000,1476.000000) scale(0.100000,-0.100000)"
fill="#000000" stroke="none">
<path d="M3625 14114 c-502 -55 -881 -312 -1085 -739 -182 -379 -280 -1054
-268 -1858 3 -197 1 -227 -12 -227 -8 0 -251 18 -540 39 -289 21 -526 38 -528
36 -3 -2 195 -50 733 -179 l350 -83 7 -44 c3 -24 7 -76 7 -115 l1 -70 -597
137 c-329 76 -599 136 -601 135 -1 -2 -110 -1069 -242 -2372 -132 -1303 -244
-2400 -249 -2439 -16 -104 -13 -340 4 -438 52 -298 198 -470 455 -536 207 -53
540 -55 875 -5 184 27 878 244 1540 481 562 201 2267 844 2288 863 7 6 -60
3380 -67 3388 -3 2 -229 55 -503 118 -274 63 -504 116 -511 119 -15 5 81 205
99 205 6 0 163 -32 348 -71 650 -137 1472 -296 2103 -409 l228 -40 421 357
c344 291 418 358 403 364 -11 5 -721 125 -1579 269 -858 143 -1570 262 -1582
265 l-22 5 26 63 c90 220 202 569 249 777 84 373 86 691 7 945 -34 107 -91
226 -157 325 -32 48 -50 82 -43 84 7 2 59 17 117 34 58 17 125 33 150 37 25 4
72 11 105 16 103 16 550 12 692 -6 397 -50 682 -181 813 -376 125 -183 154
-413 104 -824 -18 -148 -91 -435 -172 -681 -33 -98 -65 -192 -72 -209 -7 -16
-16 -39 -21 -50 -4 -11 -22 -54 -38 -95 -17 -41 -31 -85 -31 -97 0 -50 101
-99 149 -72 33 19 48 49 114 225 135 361 220 693 262 1024 11 88 13 296 4 380
-42 396 -226 609 -645 748 -225 75 -576 118 -889 108 -104 -3 -222 -10 -261
-15 -95 -13 -265 -48 -317 -65 -121 -41 -114 -42 -176 22 -198 204 -472 361
-831 477 -63 20 -146 43 -185 51 -70 14 -354 26 -430 18z m440 -173 c223 -55
495 -172 665 -286 92 -61 250 -191 250 -204 0 -4 -16 -15 -36 -25 -62 -29
-160 -104 -213 -162 -55 -59 -103 -149 -127 -234 -22 -78 -30 -327 -14 -458
27 -239 99 -557 190 -838 57 -179 63 -191 99 -199 36 -8 67 0 75 20 3 8 -21
94 -54 192 -231 699 -279 1175 -142 1413 14 25 48 69 75 98 50 52 165 132 191
132 7 0 36 -33 64 -74 101 -146 164 -301 192 -478 16 -99 8 -401 -14 -523 -44
-244 -138 -565 -252 -862 -46 -121 -62 -153 -77 -153 -10 0 -139 20 -286 45
l-267 45 -194 -39 c-216 -44 -450 -81 -670 -108 -192 -23 -535 -23 -720 0 -74
10 -186 21 -249 26 -76 6 -117 14 -122 23 -12 18 -11 468 1 723 23 468 78 835
167 1103 166 503 502 778 1033 846 87 11 356 -3 435 -23z m-1288 -2955 c400
-94 1011 -233 1478 -337 197 -44 361 -82 363 -84 8 -8 -101 -206 -112 -202 -6
2 -468 109 -1026 237 -558 128 -1020 238 -1027 244 -16 16 -23 216 -6 216 6 0
155 -33 330 -74z m-222 -475 c92 -41 144 -126 145 -230 0 -142 -108 -251 -250
-251 -65 0 -117 19 -165 62 -60 53 -85 108 -85 189 0 78 23 131 76 183 38 37
39 37 45 14 13 -44 9 -82 -12 -126 -81 -166 144 -305 264 -163 34 41 42 97 21
149 -17 43 -65 92 -89 92 -19 0 -35 32 -35 69 0 26 4 31 23 31 12 0 40 -9 62
-19z m1754 -527 c2 -1 -8 -22 -21 -46 -20 -37 -29 -44 -63 -49 -72 -9 -121
-52 -135 -116 -13 -56 3 -105 50 -147 35 -32 46 -36 93 -36 98 0 152 54 153
155 0 60 32 145 54 145 22 0 53 -85 53 -145 1 -145 -106 -254 -248 -255 -220
0 -336 252 -192 416 43 49 76 69 134 83 33 8 111 5 122 -5z"/>
<path d="M7963 10118 l-413 -348 -807 139 c-444 77 -809 139 -810 137 -2 -1
13 -722 32 -1602 19 -879 35 -1604 35 -1611 0 -6 918 446 2040 1005 1122 558
2038 1017 2037 1018 -2 2 -306 -120 -677 -271 -371 -150 -676 -272 -678 -270
-2 2 -79 485 -172 1075 -93 590 -170 1073 -172 1075 -2 1 -189 -155 -415 -347z"/>
<path d="M8980 9793 c0 -4 22 -109 50 -233 27 -124 50 -228 50 -231 0 -6 -149
-97 -175 -108 -5 -2 -61 -35 -123 -72 -133 -79 -142 -72 123 -94 82 -7 239
-25 241 -28 1 -1 23 -101 48 -222 26 -121 49 -227 52 -234 4 -13 134 266 180
387 10 26 23 42 33 42 9 0 117 -11 241 -25 123 -13 226 -23 227 -21 2 2 -246
225 -330 297 l-31 26 61 139 c34 76 78 177 97 223 l36 83 -37 -22 c-21 -13
-116 -67 -210 -122 l-173 -99 -180 161 c-99 89 -180 157 -180 153z"/>
<path d="M10230 7525 l0 -1075 590 0 590 0 0 240 0 240 -330 0 -330 0 0 185 0
185 310 0 310 0 0 230 0 230 -310 0 -310 0 0 185 0 185 330 0 330 0 0 235 0
235 -590 0 -590 0 0 -1075z"/>
<path d="M21665 8590 c-7 -11 -275 -890 -275 -902 0 -4 80 -8 178 -8 l179 0
198 443 c109 243 200 450 203 460 4 16 -12 17 -236 17 -145 0 -243 -4 -247
-10z"/>
<path d="M9725 8285 c-33 -74 -42 -86 -59 -81 -12 2 -55 8 -96 11 l-75 7 70
-64 69 -65 -33 -74 c-18 -41 -35 -80 -39 -88 -3 -8 32 6 79 31 l84 46 70 -64
c38 -34 70 -62 71 -61 2 2 -18 108 -31 164 -4 19 6 28 75 65 44 24 80 46 80
49 0 4 -35 10 -77 14 -43 4 -85 11 -94 15 -10 6 -20 36 -28 82 -8 40 -17 79
-21 86 -4 9 -21 -18 -45 -73z"/>
<path d="M22705 7983 c-110 -15 -234 -73 -296 -140 -116 -126 -159 -352 -95
-505 54 -128 204 -228 418 -279 141 -34 192 -58 214 -101 23 -45 23 -102 0
-127 -25 -28 -117 -61 -170 -61 -115 0 -318 81 -412 164 l-52 45 -46 -187
c-26 -103 -49 -194 -52 -203 -3 -12 20 -27 93 -61 196 -92 381 -134 548 -125
180 10 290 53 390 151 71 70 109 143 131 249 41 192 -61 403 -236 492 -28 14
-128 51 -221 81 -142 47 -173 60 -195 87 -29 35 -28 73 5 117 64 88 295 57
469 -62 24 -17 46 -27 50 -23 4 3 28 85 53 182 l46 175 -46 20 c-207 90 -436
132 -596 111z"/>
<path d="M13512 7960 c-125 -33 -225 -92 -328 -195 -78 -77 -98 -104 -137
-185 -51 -106 -71 -175 -86 -300 -15 -116 -14 -196 4 -280 33 -159 104 -291
214 -400 87 -87 170 -135 306 -176 79 -24 107 -27 230 -28 162 0 223 13 355
76 98 47 197 139 243 224 l27 51 -178 80 -177 80 -32 -46 c-67 -94 -158 -137
-275 -129 -101 8 -173 47 -216 118 -33 56 -55 121 -67 198 l-7 42 507 0 508 0
-7 93 c-14 187 -73 407 -138 514 -73 122 -217 221 -383 263 -103 26 -261 26
-363 0z m274 -328 c73 -37 133 -123 149 -214 l7 -38 -266 0 c-301 0 -280 -8
-244 87 39 105 87 158 166 184 43 14 143 4 188 -19z"/>
<path d="M17505 7964 c-99 -19 -255 -98 -333 -169 -179 -162 -271 -392 -259
-645 7 -136 29 -219 91 -345 54 -109 114 -186 198 -256 113 -94 236 -138 409
-146 131 -7 223 11 335 66 276 134 435 392 435 705 1 172 -38 318 -122 459
-151 255 -458 389 -754 331z m250 -447 c49 -25 86 -68 119 -137 28 -59 31 -74
31 -160 0 -102 -9 -134 -58 -213 -76 -122 -244 -142 -355 -42 -123 110 -152
284 -74 429 31 56 97 118 144 134 44 15 156 9 193 -11z"/>
<path d="M19225 7966 c-28 -7 -73 -23 -100 -36 -61 -29 -177 -143 -233 -229
l-42 -63 0 146 0 146 -215 0 -215 0 0 -740 0 -740 230 0 230 0 0 374 c0 208 5
408 11 450 13 94 41 179 74 222 38 50 116 84 192 84 76 0 120 -17 156 -59 58
-69 60 -92 65 -603 l4 -468 230 0 229 0 -3 578 c-4 554 -5 579 -25 639 -53
157 -149 248 -312 297 -64 19 -203 20 -276 2z"/>
<path d="M20442 7960 c-125 -33 -225 -92 -328 -195 -78 -77 -98 -104 -137
-185 -51 -106 -71 -175 -86 -300 -15 -116 -14 -196 4 -280 33 -159 104 -291
214 -400 87 -87 170 -135 306 -176 79 -24 107 -27 230 -28 162 0 223 13 355
76 98 47 197 139 243 224 l27 51 -178 80 -177 80 -32 -46 c-67 -94 -158 -137
-275 -129 -101 8 -173 47 -216 118 -33 56 -55 121 -67 198 l-7 42 507 0 508 0
-7 93 c-14 187 -73 407 -138 514 -73 122 -217 221 -383 263 -103 26 -261 26
-363 0z m274 -328 c73 -37 133 -123 149 -214 l7 -38 -266 0 c-301 0 -280 -8
-244 87 39 105 87 158 166 184 43 14 143 4 188 -19z"/>
<path d="M15224 7946 c-96 -30 -215 -145 -282 -272 l-41 -79 -1 168 0 167
-220 0 -220 0 0 -740 0 -740 235 0 235 0 0 360 c0 367 4 422 41 507 26 62 101
137 162 164 57 25 166 32 263 15 l51 -8 13 138 c7 77 16 144 19 151 6 11 471
-1071 471 -1098 0 -8 -79 -201 -175 -429 -96 -228 -178 -423 -181 -432 -5 -17
11 -18 253 -18 l258 0 414 1058 c228 581 416 1060 418 1065 2 4 -108 7 -245 7
l-249 0 -99 -272 c-54 -150 -106 -301 -116 -337 -10 -36 -23 -84 -30 -106
l-11 -40 -23 90 c-12 50 -67 218 -122 375 l-99 285 -227 3 c-192 2 -226 5
-226 17 0 12 -19 15 -112 14 -62 0 -131 -6 -154 -13z"/>
<path d="M11420 7922 c0 -5 131 -332 291 -728 160 -395 293 -725 296 -732 4
-10 47 -12 186 -10 l180 3 298 730 c164 402 299 733 299 738 0 4 -109 6 -241
5 l-241 -3 -114 -330 c-152 -440 -164 -475 -164 -504 0 -41 -15 -11 -38 74
-12 44 -75 233 -140 420 l-119 340 -246 3 c-136 1 -247 -1 -247 -6z"/>
<path d="M8429 7632 c-624 -433 -1089 -769 -1535 -1112 -256 -196 -869 -683
-878 -698 -5 -9 151 -5272 157 -5278 1 -1 803 281 1782 626 l1780 629 -3 33
c-4 51 -931 5989 -940 6020 -7 26 -10 24 -363 -220z"/>
<path d="M9281 7333 l2 -128 -124 -46 -124 -47 70 -20 c39 -11 95 -27 126 -36
l57 -16 8 -132 9 -132 70 107 c39 59 75 107 80 107 6 0 62 -16 125 -34 63 -19
116 -34 117 -32 1 1 -33 48 -77 103 l-79 102 75 110 75 111 -113 -41 c-62 -22
-120 -43 -128 -45 -10 -2 -42 32 -90 96 -41 55 -76 100 -78 100 -2 0 -2 -57
-1 -127z"/>
<path d="M5835 6257 c-1599 -815 -2804 -1683 -3441 -2477 -282 -351 -455 -707
-542 -1110 -24 -114 -26 -144 -26 -340 0 -202 2 -221 27 -315 15 -55 47 -140
72 -190 156 -314 554 -678 1060 -970 101 -58 390 -206 441 -225 19 -7 -18 36
-112 132 -327 336 -543 705 -630 1078 -19 79 -26 146 -31 271 -7 193 5 331 47
539 142 710 509 1347 1160 2014 595 610 1312 1157 2255 1721 99 60 -3 13 -280
-128z"/>
<path d="M18800 6140 l0 -220 -100 0 -100 0 0 -180 0 -180 100 0 100 0 0 -560
0 -560 230 0 230 0 0 560 0 560 100 0 100 0 0 180 0 180 -100 0 -100 0 0 220
0 220 -230 0 -230 0 0 -220z"/>
<path d="M17885 5964 c-96 -19 -202 -73 -254 -129 -118 -128 -161 -354 -97
-507 54 -128 199 -225 418 -279 143 -35 192 -58 214 -101 23 -45 23 -102 0
-127 -26 -29 -118 -61 -175 -61 -64 0 -209 43 -291 86 -36 19 -88 54 -117 79
l-51 44 -46 -187 c-26 -103 -49 -194 -52 -203 -8 -30 239 -132 411 -170 33 -7
119 -13 190 -13 204 0 320 40 430 149 70 69 110 145 131 248 40 190 -61 403
-233 490 -27 14 -126 51 -221 82 -144 48 -176 62 -198 88 -28 34 -28 70 2 115
60 91 295 61 472 -60 24 -17 46 -27 50 -23 4 3 28 85 53 182 l46 175 -46 20
c-96 42 -250 88 -341 103 -114 18 -201 18 -295 -1z"/>
<path d="M20015 5954 c-100 -21 -256 -100 -333 -169 -233 -212 -320 -552 -220
-865 65 -203 213 -386 373 -461 91 -43 169 -61 290 -66 132 -6 210 10 329 66
221 104 364 285 420 529 20 90 21 268 1 362 -57 269 -226 481 -454 567 -138
52 -273 64 -406 37z m250 -447 c83 -42 145 -154 153 -272 6 -92 -10 -158 -55
-229 -82 -131 -246 -154 -361 -51 -123 110 -152 284 -74 429 31 56 97 118 144
134 44 15 156 9 193 -11z"/>
<path d="M22504 5951 c-252 -68 -464 -284 -528 -536 -41 -164 -45 -325 -12
-458 37 -146 103 -264 201 -363 92 -92 171 -138 310 -180 79 -24 107 -27 230
-28 162 0 223 13 355 76 98 47 197 139 243 224 l27 51 -178 80 -177 80 -32
-46 c-67 -94 -158 -137 -275 -129 -101 8 -173 47 -216 118 -33 56 -55 121 -67
198 l-7 42 507 0 508 0 -7 88 c-11 132 -33 242 -71 361 -70 217 -185 334 -400
407 -110 37 -303 44 -411 15z m272 -329 c73 -37 133 -123 149 -214 l7 -38
-266 0 c-216 0 -266 3 -266 13 0 27 39 126 65 166 28 42 73 76 123 92 43 14
143 4 188 -19z"/>
<path d="M21710 5936 c-97 -26 -218 -140 -288 -272 l-41 -79 -1 168 0 167
-220 0 -220 0 0 -740 0 -740 235 0 235 0 0 363 c0 391 6 450 55 532 34 58 103
119 161 141 53 21 161 25 250 10 l50 -8 22 218 c12 121 22 227 22 237 0 15
-12 17 -107 16 -60 0 -128 -6 -153 -13z"/>
<path d="M5620 5486 c-744 -693 -1341 -1443 -1626 -2041 -257 -540 -306 -964
-163 -1405 128 -394 353 -581 1052 -872 389 -161 578 -257 902 -457 80 -49
145 -86 145 -83 0 4 -16 608 -35 1342 -19 734 -48 1861 -65 2505 -17 643 -32
1170 -33 1171 -1 2 -81 -71 -177 -160z"/>
</g>
</svg>
